<svg width="183" height="53" viewBox="0 0 183 53" xmlns="http://www.w3.org/2000/svg"><title>Imported Layers</title><g fill="none" fill-rule="evenodd"><path d="M178.276 27.72c-.77-.884-1.97-1.507-3.596-1.868 1.07-.348 1.883-.82 2.438-1.416.83-.895 1.246-1.966 1.243-3.213-.002-1.487-.59-2.732-1.76-3.737-1.173-1.005-2.85-1.504-5.033-1.5l-13.1.03v21.1h2.644v-.007l9.487-.024c.514 0 1.56-.1 3.136-.296 1.182-.145 2.067-.378 2.654-.696.946-.51 1.69-1.204 2.236-2.078.543-.874.814-1.858.81-2.952-.002-1.342-.388-2.457-1.157-3.343m-12.74-7.445l3.09-.007c1.062-.003 1.806.168 2.234.512.428.345.643.824.644 1.438.002.662-.21 1.168-.637 1.52-.427.35-1.187.528-2.278.53l-3.043.008-.01-4m6.144 11.677c-.492.4-1.34.6-2.545.603l-3.57.008-.01-4.273 3.554-.007c1.224-.003 2.08.184 2.573.562.49.378.735.878.736 1.502 0 .67-.244 1.208-.74 1.606M12.363 24.38l-2.248-.257c-1.874-.225-2.86-.897-2.86-2.02 0-1.088 1.054-2.113 3.133-2.113 1.226 0 3.27.225 4.666 1.442l3.85-2.947c-1.806-1.858-4.565-2.82-8.244-2.82-4.974 0-8.686 2.403-8.686 6.792 0 3.684 2.214 5.317 5.314 5.798l3.44.544c2.112.32 2.998.704 2.998 2.274 0 1.44-1.26 2.146-3.44 2.146-2.18 0-4.122-.513-5.28-1.602l-3.884 3.01c1.874 2.18 5.042 2.948 9.13 2.948 4.768 0 8.992-2.306 8.992-6.823 0-4.292-2.69-5.894-6.88-6.374M32.057 29.023c0 3.364-1.09 4.23-3.203 4.23-2.384 0-3.44-.706-3.44-4.23V15.987H20.1v13.357c0 6.054 2.725 8.232 8.754 8.232 6.064 0 8.55-2.21 8.55-8.232V15.987h-5.347v13.036M82.796 15.987h-5.314v21.27h14.443V32.93h-9.13V15.987M112.247.178L96.767 24.25l-3.78-8.263h-5.792l6.847 13.197v8.072h5.347v-7.944l14.43-28.288v9.3l.403.13V.238l.03-.06h-2.006" fill="#FFF"/><path d="M178.634 33.998c-.004.006-.008.012-.01.018.002-.006.006-.012.01-.018m.01-.017l-.006.01.006-.01m.01-.014c-.002 0-.002.003-.003.004.002 0 .002-.003.004-.004m-6.928-2.05l-.002.002.003-.003m.01-.01c0 .002-.003.004-.005.006.002 0 .004-.003.006-.005m.5-.655c-.114.248-.28.466-.5.655.22-.19.386-.407.5-.655" fill="#E1EAF0"/><path d="M158.468 27.825v9.29h2.643v-.006l9.487-.024c.514 0 1.56-.1 3.136-.296 1.182-.145 2.067-.378 2.654-.696.946-.51 1.69-1.204 2.236-2.078l.01-.018.005-.007.006-.01.007-.01c.002 0 .002-.003.004-.004.193-.32.35-.654.472-1.002l-6.89-1.714c-.112.248-.278.466-.497.655h-.002l-.006.006-.005.005-.003.003-.008.007c-.012.01-.023.02-.035.028-.492.4-1.34.6-2.545.603l-3.57.008-.006-2.975-7.092-1.765" fill="#E0EAF0"/><path d="M149.99 15.987v13.036c0 3.364-.395 4.23-2.75 4.23-2.66 0-3.017-.706-3.017-4.23V15.987h-6.747v2.33l3.094 1.004c.255.084.47.27.587.51.12.238.135.52.046.773l-3.65 10.302c.51 4.872 3.576 6.67 9.686 6.67 6.762 0 9.535-2.21 9.535-8.23V15.986h-6.785" fill="#FFF"/><path d="M140.25 23.293l-2.697 7.612 2.697-7.612" fill="#E1EAF0"/><path d="M140.25 23.293l-2.697 7.612c.51 4.872 3.576 6.67 9.686 6.67 6.762 0 9.535-2.21 9.535-8.23v-1.94l-6.785-1.69v3.308c0 3.364-.395 4.23-2.75 4.23-2.66 0-3.017-.706-3.017-4.23v-4.74l-3.973-.99" fill="#E0EAF0"/><path d="M110.86 10.73l7.824 2.54-1.977 10.58 9.198 4.02 2.98-11.294 11.376 3.694-10.458 29.522-8.325-5.137 2.61-9.888-8.604-4.384-1.77 9.477-6.155-3.795 3.3-25.334" fill="#F1AA48"/><path d="M48.23 15.987h-6.27l-.01.006-.07-.006c-1.306 0-2.395.913-2.673 2.133-.045.197-.073.4-.073.61v18.526h5.314v-7.272h3.78c5.996 0 8.823-2.786 8.823-7.174 0-4.165-1.906-6.823-8.82-6.823zm.135 9.77H44.43V20.31h3.935c2.555 0 3.406.994 3.406 2.755 0 1.667-.952 2.692-3.405 2.692zM67.394 15.987h-6.27l-.01.006-.068-.006c-1.307 0-2.395.913-2.674 2.133-.044.197-.073.4-.073.61v18.526h5.313v-7.272h3.78c5.996 0 8.824-2.786 8.824-7.174 0-4.165-1.908-6.823-8.823-6.823zm.136 9.77h-3.917V20.31h3.917c2.555 0 3.406.994 3.406 2.755 0 1.667-.953 2.692-3.406 2.692zM179.302 18.076v-1.564h-.585v-.21h1.407v.21h-.587v1.564h-.235M180.296 18.076v-1.773h.354l.42 1.255c.04.117.067.204.085.263.02-.064.052-.16.095-.284l.425-1.233h.316v1.773h-.225v-1.484l-.516 1.484h-.214l-.513-1.51v1.51h-.227" fill="#FFF"/></g></svg>